# xmcd
#
# Track frame offsets:
#	183
#	21715
#	35853
#	52213
#	69175
#	87063
#	104935
#	118493
#	132085
#	147953
#	163588
#	180218
#	195728
#	209183
#	224865
#	241203
#	257158
#	270293
#	285995
#	301915
#
# Disc length: 4215 seconds
#
# Revision: 6
# Processed by: cddbd v1.5.2PL0 Copyright (c) Steve Scherf et al.
# Submitted via: EasyCDDAExtractor 12.0.0.1
#
DISCID=3f107514
DTITLE=Various Artist - Let's go Disco!  40 Dance Classics [CD2]
DYEAR=1993
DGENRE=Disco
TTITLE0=Shirley and Company - Shame, Shame, Shame
TTITLE1=Andrea True Connection - More, More, More
TTITLE2=The Emotions - Best Of My Love
TTITLE3=The Trammps - Hold Back The Night
TTITLE4=Harold Melvin and the Bluenotes - The Love I Lost
TTITLE5=Van McCoy - The Hustle
TTITLE6=George McCrae - Rock Your Baby
TTITLE7=Hues Corporation - Rock The Boat
TTITLE8=The O'Jays - I Love Music
TTITLE9=Melba Moore - This Is It
TTITLE10=Amii Stewart - Knock On Wood
TTITLE11=Billy Ocean - Red Light Spells Danger
TTITLE12=Joe Tex - Ain't Gonna Bump No More
TTITLE13=Musique - In The Bush
TTITLE14=A Taste Of Honey - Boogie Oogie Oogie
TTITLE15=Earth Wind and Fire - September
TTITLE16=Yvonne Elliman - If I Can't Have You
TTITLE17=T-Connection - Do What You Wanna Do
TTITLE18=Hamilton Bohannon - Disco Stomp
TTITLE19=The Moments and The Whatnauts - Girls
EXTD=YEAR: 1993
EXTT0=
EXTT1=
EXTT2=
EXTT3=
EXTT4=
EXTT5=
EXTT6=
EXTT7=
EXTT8=
EXTT9=
EXTT10=
EXTT11=
EXTT12=
EXTT13=
EXTT14=
EXTT15=
EXTT16=
EXTT17=
EXTT18=
EXTT19=
PLAYORDER=
